# xmcd CD database file
#
# Track frame offsets:
#	150
#	23328
#	51623
#
# Disc length: 1073 seconds
#
# Revision: 0
# Processed by: cddbd v1.5.1PL0 Copyright (c) Steve Scherf et al.
# Submitted via: CDex 1.51
#
DISCID=1d042f03
DTITLE=Jabber Loop - Re：Loop
DYEAR=2005
DGENRE=Jazz
TTITLE0=Re：Loop
TTITLE1=Look to the sky
TTITLE2=Gravel pit Man
EXTD=YEAR: 2005
EXTT0=
EXTT1=
EXTT2=
PLAYORDER=
